<svg version="1.0" xmlns="http://www.w3.org/2000/svg"
 width="512.000000pt" height="512.000000pt" viewBox="0 0 512.000000 512.000000"
 preserveAspectRatio="xMidYMid meet">
<g transform="translate(0.000000,512.000000) scale(0.100000,-0.100000)"
fill="#434D41" stroke="none">
<path d="M2365 5109 c-856 -71 -1607 -548 -2032 -1292 -306 -536 -404 -1201
-267 -1817 214 -963 971 -1718 1937 -1934 359 -81 755 -81 1114 0 804 179
1482 744 1797 1495 206 493 255 1040 140 1559 -232 1044 -1101 1837 -2164
1974 -152 20 -389 27 -525 15z m605 -123 c684 -120 1262 -496 1643 -1071 146
-220 264 -487 332 -750 57 -223 69 -330 69 -605 0 -275 -12 -382 -69 -605 -46
-178 -95 -310 -180 -483 -224 -456 -579 -826 -1030 -1074 -155 -86 -141 -92
-149 69 -8 163 -22 343 -37 468 -18 154 -104 466 -156 570 -34 66 -145 214
-205 271 -77 74 -144 112 -291 165 -89 32 -120 48 -156 82 -68 66 -91 124 -91
233 0 84 2 92 25 114 30 29 31 44 4 71 -24 24 -55 20 -100 -12 -15 -11 -58
-31 -96 -46 -63 -24 -83 -27 -251 -31 -154 -4 -190 -2 -226 12 -58 22 -120 87
-159 166 l-32 65 -5 238 c-5 254 -6 256 -56 257 -46 0 -48 -13 -38 -293 l9
-262 39 -69 c81 -144 178 -216 303 -224 83 -5 78 3 88 -142 6 -97 -2 -122 -54
-157 -26 -18 -42 -21 -71 -17 -32 5 -40 2 -61 -23 -20 -24 -45 -36 -138 -62
-167 -47 -235 -86 -354 -200 -109 -104 -191 -262 -266 -511 -45 -150 -67 -268
-75 -412 -7 -103 2 -128 44 -128 36 0 47 26 54 122 18 234 87 482 189 681 42
82 65 111 137 181 102 98 175 137 348 185 l113 32 51 -46 c102 -92 219 -135
383 -142 178 -8 257 18 468 153 67 44 68 44 100 28 49 -26 145 -122 197 -199
164 -243 233 -512 260 -1020 5 -104 12 -211 15 -236 l5 -47 -87 -32 c-133 -48
-314 -95 -464 -121 -116 -20 -168 -23 -389 -23 -221 0 -273 3 -389 23 -617
106 -1130 404 -1531 891 -143 174 -313 476 -394 702 -49 134 -100 333 -122
478 -26 163 -26 557 0 720 40 256 115 491 231 728 352 716 1034 1220 1816
1341 188 29 190 29 434 26 182 -3 245 -8 365 -29z m-419 -2781 c7 -102 32
-159 106 -236 56 -59 118 -99 176 -113 36 -9 34 -17 -11 -43 -165 -98 -274
-125 -421 -106 -81 11 -195 57 -250 101 l-23 19 60 59 c57 55 61 63 67 118 7
50 2 174 -7 217 -2 8 28 16 92 25 52 7 113 19 135 28 65 24 69 21 76 -69z"/>
<path d="M2914 4767 c-182 -38 -292 -208 -254 -391 22 -106 99 -160 252 -174
71 -7 83 -6 96 9 11 12 24 16 47 12 26 -4 44 2 81 27 60 39 86 72 94 119 l5
36 69 7 c56 5 74 12 98 35 28 26 30 32 26 94 -3 54 -9 73 -32 103 -31 42 -69
46 -92 11 -11 -17 -10 -27 7 -63 34 -73 18 -89 -88 -91 -61 -1 -81 -21 -90
-91 -4 -28 -13 -46 -30 -58 -14 -9 -39 -29 -58 -44 l-33 -28 -79 14 c-125 22
-171 53 -180 125 -12 87 45 189 128 231 32 17 59 20 167 20 86 0 132 4 140 12
21 21 14 56 -14 75 -34 22 -175 27 -260 10z"/>
<path d="M2430 4240 c-65 -8 -142 -31 -298 -88 -116 -43 -172 -76 -254 -148
-134 -118 -203 -223 -253 -389 -24 -77 -29 -113 -33 -247 -5 -173 -1 -188 49
-188 33 0 49 23 49 69 0 36 6 38 35 11 19 -18 28 -19 92 -11 121 15 275 108
319 193 l15 29 37 -29 c46 -36 155 -92 180 -92 29 0 55 35 48 63 -4 18 -20 31
-61 47 -61 25 -138 87 -160 131 -8 15 -15 45 -15 66 0 70 -47 105 -84 64 -14
-15 -17 -32 -14 -78 2 -32 7 -65 11 -73 5 -11 -13 -37 -57 -85 -74 -82 -144
-122 -236 -135 -34 -5 -70 -16 -79 -24 -10 -9 -21 -16 -24 -16 -10 0 -8 185 2
212 5 13 16 48 26 78 37 117 92 205 179 288 100 96 179 141 354 204 119 43
143 48 216 48 46 0 97 5 115 11 26 9 31 16 31 45 0 54 -33 62 -190 44z"/>
<path d="M3142 4118 c-25 -25 -13 -56 38 -98 63 -53 141 -171 181 -274 52
-136 69 -232 69 -407 0 -191 -9 -241 -59 -344 -49 -99 -179 -242 -293 -322
-88 -62 -138 -108 -138 -128 0 -21 29 -45 54 -45 35 0 209 135 312 241 106
109 161 198 199 321 27 86 27 91 22 285 -7 261 -32 369 -130 558 -54 105 -168
225 -213 225 -16 0 -35 -5 -42 -12z"/>
<path d="M2466 3854 c-25 -25 -28 -50 -24 -260 l3 -199 39 -75 c59 -114 173
-226 290 -285 135 -68 216 -72 216 -10 0 29 -10 37 -100 70 -41 16 -97 42
-125 60 -68 43 -153 138 -190 210 l-30 60 -2 214 c-2 161 -6 217 -15 223 -20
12 -45 9 -62 -8z"/>
<path d="M1960 3170 c-50 -50 -3 -124 55 -86 45 30 28 106 -24 106 -6 0 -20
-9 -31 -20z"/>
<path d="M2278 3088 c-17 -33 -17 -57 2 -80 25 -31 67 -17 86 28 14 33 14 38
-2 55 -24 27 -70 25 -86 -3z"/>
<path d="M2098 3053 c-33 -36 -88 -126 -88 -145 0 -21 33 -48 58 -48 16 0 35
20 72 77 52 79 59 103 38 121 -31 24 -54 22 -80 -5z"/>
<path d="M2760 2931 c-5 -11 -10 -24 -10 -30 0 -22 41 -51 71 -51 44 0 66 -15
74 -50 11 -49 -14 -76 -76 -84 -29 -4 -60 -11 -70 -16 -31 -17 -80 -109 -77
-144 3 -27 7 -31 35 -34 29 -3 36 2 64 41 26 37 38 46 73 51 61 10 120 49 141
92 26 55 15 148 -23 187 -36 39 -81 57 -141 57 -39 0 -53 -4 -61 -19z"/>
<path d="M2180 2669 c-48 -22 -82 -22 -162 1 -56 16 -78 4 -78 -41 0 -78 229
-105 315 -37 28 22 33 59 9 82 -20 20 -29 20 -84 -5z"/>
</g>
</svg>
